<?xml version="1.0" encoding="UTF-8" standalone="no"?>
<!DOCTYPE svg PUBLIC "-//W3C//DTD SVG 1.1//EN"
 "http://www.w3.org/Graphics/SVG/1.1/DTD/svg11.dtd">
<!-- Generated by graphviz version 5.0.0 (20220707.1540)
 -->
<!-- Pages: 1 -->
<svg width="580pt" height="332pt"
 viewBox="0.00 0.00 579.57 332.00" xmlns="http://www.w3.org/2000/svg" xmlns:xlink="http://www.w3.org/1999/xlink">
<g id="graph0" class="graph" transform="scale(1 1) rotate(0) translate(4 328)">
<polygon fill="white" stroke="transparent" points="-4,4 -4,-328 575.57,-328 575.57,4 -4,4"/>
<!-- [root] dcnm_network.demo&#45;net&#45;1 (expand) -->
<g id="node1" class="node">
<title>[root] dcnm_network.demo&#45;net&#45;1 (expand)</title>
<polygon fill="none" stroke="black" points="165,-180 0,-180 0,-144 165,-144 165,-180"/>
<text text-anchor="middle" x="82.5" y="-158.3" font-family="Times,serif" font-size="14.00">dcnm_network.demo&#45;net&#45;1</text>
</g>
<!-- [root] dcnm_vrf.demo&#45;vrf&#45;1 (expand) -->
<g id="node3" class="node">
<title>[root] dcnm_vrf.demo&#45;vrf&#45;1 (expand)</title>
<polygon fill="none" stroke="black" points="290.5,-108 154.5,-108 154.5,-72 290.5,-72 290.5,-108"/>
<text text-anchor="middle" x="222.5" y="-86.3" font-family="Times,serif" font-size="14.00">dcnm_vrf.demo&#45;vrf&#45;1</text>
</g>
<!-- [root] dcnm_network.demo&#45;net&#45;1 (expand)&#45;&gt;[root] dcnm_vrf.demo&#45;vrf&#45;1 (expand) -->
<g id="edge1" class="edge">
<title>[root] dcnm_network.demo&#45;net&#45;1 (expand)&#45;&gt;[root] dcnm_vrf.demo&#45;vrf&#45;1 (expand)</title>
<path fill="none" stroke="black" d="M116.75,-143.88C135.56,-134.47 159.08,-122.71 179.17,-112.67"/>
<polygon fill="black" stroke="black" points="180.74,-115.79 188.12,-108.19 177.61,-109.53 180.74,-115.79"/>
</g>
<!-- [root] dcnm_network.demo&#45;net&#45;2 (expand) -->
<g id="node2" class="node">
<title>[root] dcnm_network.demo&#45;net&#45;2 (expand)</title>
<polygon fill="none" stroke="black" points="348,-180 183,-180 183,-144 348,-144 348,-180"/>
<text text-anchor="middle" x="265.5" y="-158.3" font-family="Times,serif" font-size="14.00">dcnm_network.demo&#45;net&#45;2</text>
</g>
<!-- [root] dcnm_network.demo&#45;net&#45;2 (expand)&#45;&gt;[root] dcnm_vrf.demo&#45;vrf&#45;1 (expand) -->
<g id="edge2" class="edge">
<title>[root] dcnm_network.demo&#45;net&#45;2 (expand)&#45;&gt;[root] dcnm_vrf.demo&#45;vrf&#45;1 (expand)</title>
<path fill="none" stroke="black" d="M254.87,-143.7C249.87,-135.56 243.81,-125.69 238.29,-116.7"/>
<polygon fill="black" stroke="black" points="241.22,-114.79 233.01,-108.1 235.26,-118.46 241.22,-114.79"/>
</g>
<!-- [root] provider[&quot;registry.terraform.io/ciscodevnet/dcnm&quot;] -->
<g id="node5" class="node">
<title>[root] provider[&quot;registry.terraform.io/ciscodevnet/dcnm&quot;]</title>
<polygon fill="none" stroke="black" points="299.5,-36 27.36,-18 299.5,0 571.64,-18 299.5,-36"/>
<text text-anchor="middle" x="299.5" y="-14.3" font-family="Times,serif" font-size="14.00">provider[&quot;registry.terraform.io/ciscodevnet/dcnm&quot;]</text>
</g>
<!-- [root] dcnm_vrf.demo&#45;vrf&#45;1 (expand)&#45;&gt;[root] provider[&quot;registry.terraform.io/ciscodevnet/dcnm&quot;] -->
<g id="edge3" class="edge">
<title>[root] dcnm_vrf.demo&#45;vrf&#45;1 (expand)&#45;&gt;[root] provider[&quot;registry.terraform.io/ciscodevnet/dcnm&quot;]</title>
<path fill="none" stroke="black" d="M241.53,-71.7C251.5,-62.64 263.82,-51.44 274.54,-41.69"/>
<polygon fill="black" stroke="black" points="276.96,-44.22 282,-34.91 272.25,-39.04 276.96,-44.22"/>
</g>
<!-- [root] dcnm_vrf.demo&#45;vrf&#45;2 (expand) -->
<g id="node4" class="node">
<title>[root] dcnm_vrf.demo&#45;vrf&#45;2 (expand)</title>
<polygon fill="none" stroke="black" points="444.5,-108 308.5,-108 308.5,-72 444.5,-72 444.5,-108"/>
<text text-anchor="middle" x="376.5" y="-86.3" font-family="Times,serif" font-size="14.00">dcnm_vrf.demo&#45;vrf&#45;2</text>
</g>
<!-- [root] dcnm_vrf.demo&#45;vrf&#45;2 (expand)&#45;&gt;[root] provider[&quot;registry.terraform.io/ciscodevnet/dcnm&quot;] -->
<g id="edge4" class="edge">
<title>[root] dcnm_vrf.demo&#45;vrf&#45;2 (expand)&#45;&gt;[root] provider[&quot;registry.terraform.io/ciscodevnet/dcnm&quot;]</title>
<path fill="none" stroke="black" d="M357.47,-71.7C347.5,-62.64 335.18,-51.44 324.46,-41.69"/>
<polygon fill="black" stroke="black" points="326.75,-39.04 317,-34.91 322.04,-44.22 326.75,-39.04"/>
</g>
<!-- [root] provider[&quot;registry.terraform.io/ciscodevnet/dcnm&quot;] (close) -->
<g id="node6" class="node">
<title>[root] provider[&quot;registry.terraform.io/ciscodevnet/dcnm&quot;] (close)</title>
<ellipse fill="none" stroke="black" cx="265.5" cy="-234" rx="241.26" ry="18"/>
<text text-anchor="middle" x="265.5" y="-230.3" font-family="Times,serif" font-size="14.00">[root] provider[&quot;registry.terraform.io/ciscodevnet/dcnm&quot;] (close)</text>
</g>
<!-- [root] provider[&quot;registry.terraform.io/ciscodevnet/dcnm&quot;] (close)&#45;&gt;[root] dcnm_network.demo&#45;net&#45;1 (expand) -->
<g id="edge5" class="edge">
<title>[root] provider[&quot;registry.terraform.io/ciscodevnet/dcnm&quot;] (close)&#45;&gt;[root] dcnm_network.demo&#45;net&#45;1 (expand)</title>
<path fill="none" stroke="black" d="M221.67,-216.23C196.13,-206.46 163.72,-194.07 136.6,-183.69"/>
<polygon fill="black" stroke="black" points="137.84,-180.42 127.25,-180.12 135.34,-186.96 137.84,-180.42"/>
</g>
<!-- [root] provider[&quot;registry.terraform.io/ciscodevnet/dcnm&quot;] (close)&#45;&gt;[root] dcnm_network.demo&#45;net&#45;2 (expand) -->
<g id="edge6" class="edge">
<title>[root] provider[&quot;registry.terraform.io/ciscodevnet/dcnm&quot;] (close)&#45;&gt;[root] dcnm_network.demo&#45;net&#45;2 (expand)</title>
<path fill="none" stroke="black" d="M265.5,-215.7C265.5,-207.98 265.5,-198.71 265.5,-190.11"/>
<polygon fill="black" stroke="black" points="269,-190.1 265.5,-180.1 262,-190.1 269,-190.1"/>
</g>
<!-- [root] provider[&quot;registry.terraform.io/ciscodevnet/dcnm&quot;] (close)&#45;&gt;[root] dcnm_vrf.demo&#45;vrf&#45;2 (expand) -->
<g id="edge7" class="edge">
<title>[root] provider[&quot;registry.terraform.io/ciscodevnet/dcnm&quot;] (close)&#45;&gt;[root] dcnm_vrf.demo&#45;vrf&#45;2 (expand)</title>
<path fill="none" stroke="black" d="M310.35,-216.08C327.15,-207.63 344.94,-195.78 356.5,-180 369.63,-162.08 374.37,-137.08 375.98,-118.14"/>
<polygon fill="black" stroke="black" points="379.48,-118.25 376.6,-108.06 372.49,-117.82 379.48,-118.25"/>
</g>
<!-- [root] root -->
<g id="node7" class="node">
<title>[root] root</title>
<ellipse fill="none" stroke="black" cx="265.5" cy="-306" rx="47.39" ry="18"/>
<text text-anchor="middle" x="265.5" y="-302.3" font-family="Times,serif" font-size="14.00">[root] root</text>
</g>
<!-- [root] root&#45;&gt;[root] provider[&quot;registry.terraform.io/ciscodevnet/dcnm&quot;] (close) -->
<g id="edge8" class="edge">
<title>[root] root&#45;&gt;[root] provider[&quot;registry.terraform.io/ciscodevnet/dcnm&quot;] (close)</title>
<path fill="none" stroke="black" d="M265.5,-287.7C265.5,-279.98 265.5,-270.71 265.5,-262.11"/>
<polygon fill="black" stroke="black" points="269,-262.1 265.5,-252.1 262,-262.1 269,-262.1"/>
</g>
</g>
</svg>
